<mxfile host="app.diagrams.net" agent="Mozilla/5.0 (Windows NT 10.0; Win64; x64) AppleWebKit/537.36 (KHTML, like Gecko) Chrome/129.0.0.0 Safari/537.36" version="24.7.17">
  <diagram name="Page-1" id="13e1069c-82ec-6db2-03f1-153e76fe0fe0">
    <mxGraphModel dx="1354" dy="782" grid="1" gridSize="10" guides="1" tooltips="1" connect="1" arrows="1" fold="1" page="1" pageScale="1" pageWidth="1100" pageHeight="850" background="none" math="0" shadow="0">
      <root>
        <mxCell id="0" />
        <mxCell id="1" parent="0" />
        <mxCell id="PfA9UrWwTEVDZZUZMj6F-118" value="API" style="shape=umlLifeline;perimeter=lifelinePerimeter;whiteSpace=wrap;html=1;container=1;collapsible=0;recursiveResize=0;outlineConnect=0;rounded=0;shadow=0;comic=0;labelBackgroundColor=none;strokeWidth=1;fontFamily=Verdana;fontSize=12;align=center;" parent="1" vertex="1">
          <mxGeometry x="820.06" y="85" width="100" height="705" as="geometry" />
        </mxCell>
        <mxCell id="PfA9UrWwTEVDZZUZMj6F-119" value="" style="html=1;points=[[0,0,0,0,5],[0,1,0,0,-5],[1,0,0,0,5],[1,1,0,0,-5]];perimeter=orthogonalPerimeter;outlineConnect=0;targetShapes=umlLifeline;portConstraint=eastwest;newEdgeStyle={&quot;curved&quot;:0,&quot;rounded&quot;:0};" parent="PfA9UrWwTEVDZZUZMj6F-118" vertex="1">
          <mxGeometry x="45" y="336" width="10" height="65" as="geometry" />
        </mxCell>
        <mxCell id="PfA9UrWwTEVDZZUZMj6F-120" value="App" style="shape=umlLifeline;perimeter=lifelinePerimeter;whiteSpace=wrap;html=1;container=1;collapsible=0;recursiveResize=0;outlineConnect=0;rounded=0;shadow=0;comic=0;labelBackgroundColor=none;strokeWidth=1;fontFamily=Verdana;fontSize=12;align=center;" parent="1" vertex="1">
          <mxGeometry x="367.5" y="85" width="100" height="705" as="geometry" />
        </mxCell>
        <mxCell id="PfA9UrWwTEVDZZUZMj6F-121" value="" style="html=1;points=[[0,0,0,0,5],[0,1,0,0,-5],[1,0,0,0,5],[1,1,0,0,-5]];perimeter=orthogonalPerimeter;outlineConnect=0;targetShapes=umlLifeline;portConstraint=eastwest;newEdgeStyle={&quot;curved&quot;:0,&quot;rounded&quot;:0};" parent="PfA9UrWwTEVDZZUZMj6F-120" vertex="1">
          <mxGeometry x="45" y="451" width="10" height="75" as="geometry" />
        </mxCell>
        <mxCell id="PfA9UrWwTEVDZZUZMj6F-122" value="" style="html=1;points=[[0,0,0,0,5],[0,1,0,0,-5],[1,0,0,0,5],[1,1,0,0,-5]];perimeter=orthogonalPerimeter;outlineConnect=0;targetShapes=umlLifeline;portConstraint=eastwest;newEdgeStyle={&quot;curved&quot;:0,&quot;rounded&quot;:0};" parent="PfA9UrWwTEVDZZUZMj6F-120" vertex="1">
          <mxGeometry x="45" y="614" width="10" height="45" as="geometry" />
        </mxCell>
        <mxCell id="PfA9UrWwTEVDZZUZMj6F-123" value="sd Dashboard" style="shape=umlFrame;whiteSpace=wrap;html=1;pointerEvents=0;width=190;height=28;" parent="1" vertex="1">
          <mxGeometry x="130" y="10" width="950" height="830" as="geometry" />
        </mxCell>
        <mxCell id="PfA9UrWwTEVDZZUZMj6F-124" value="" style="shape=umlLifeline;perimeter=lifelinePerimeter;whiteSpace=wrap;html=1;container=1;dropTarget=0;collapsible=0;recursiveResize=0;outlineConnect=0;portConstraint=eastwest;newEdgeStyle={&quot;curved&quot;:0,&quot;rounded&quot;:0};participant=umlActor;size=60;" parent="1" vertex="1">
          <mxGeometry x="191.5" y="90" width="30" height="700" as="geometry" />
        </mxCell>
        <mxCell id="PfA9UrWwTEVDZZUZMj6F-125" value="" style="html=1;points=[[0,0,0,0,5],[0,1,0,0,-5],[1,0,0,0,5],[1,1,0,0,-5]];perimeter=orthogonalPerimeter;outlineConnect=0;targetShapes=umlLifeline;portConstraint=eastwest;newEdgeStyle={&quot;curved&quot;:0,&quot;rounded&quot;:0};" parent="PfA9UrWwTEVDZZUZMj6F-124" vertex="1">
          <mxGeometry x="10" y="471" width="10" height="50" as="geometry" />
        </mxCell>
        <mxCell id="PfA9UrWwTEVDZZUZMj6F-126" value="" style="html=1;points=[[0,0,0,0,5],[0,1,0,0,-5],[1,0,0,0,5],[1,1,0,0,-5]];perimeter=orthogonalPerimeter;outlineConnect=0;targetShapes=umlLifeline;portConstraint=eastwest;newEdgeStyle={&quot;curved&quot;:0,&quot;rounded&quot;:0};" parent="PfA9UrWwTEVDZZUZMj6F-124" vertex="1">
          <mxGeometry x="10" y="617" width="10" height="34" as="geometry" />
        </mxCell>
        <mxCell id="PfA9UrWwTEVDZZUZMj6F-127" value="Cliente" style="text;html=1;align=center;verticalAlign=middle;resizable=0;points=[];autosize=1;strokeColor=none;fillColor=none;" parent="1" vertex="1">
          <mxGeometry x="176.5" y="60" width="60" height="30" as="geometry" />
        </mxCell>
        <mxCell id="PfA9UrWwTEVDZZUZMj6F-128" value="Usuario ya inicio sesion" style="shape=note;whiteSpace=wrap;html=1;backgroundOutline=1;darkOpacity=0.05;size=20;" parent="1" vertex="1">
          <mxGeometry x="243" y="50" width="80" height="92" as="geometry" />
        </mxCell>
        <mxCell id="PfA9UrWwTEVDZZUZMj6F-129" value="Dashboard" style="shape=umlLifeline;perimeter=lifelinePerimeter;whiteSpace=wrap;html=1;container=1;collapsible=0;recursiveResize=0;outlineConnect=0;rounded=0;shadow=0;comic=0;labelBackgroundColor=none;strokeWidth=1;fontFamily=Verdana;fontSize=12;align=center;" parent="1" vertex="1">
          <mxGeometry x="626.56" y="85" width="100" height="705" as="geometry" />
        </mxCell>
        <mxCell id="PfA9UrWwTEVDZZUZMj6F-130" value="" style="html=1;points=[[0,0,0,0,5],[0,1,0,0,-5],[1,0,0,0,5],[1,1,0,0,-5]];perimeter=orthogonalPerimeter;outlineConnect=0;targetShapes=umlLifeline;portConstraint=eastwest;newEdgeStyle={&quot;curved&quot;:0,&quot;rounded&quot;:0};" parent="PfA9UrWwTEVDZZUZMj6F-129" vertex="1">
          <mxGeometry x="45" y="346" width="10" height="75" as="geometry" />
        </mxCell>
        <mxCell id="PfA9UrWwTEVDZZUZMj6F-131" style="edgeStyle=orthogonalEdgeStyle;rounded=0;orthogonalLoop=1;jettySize=auto;html=1;curved=0;" parent="1" source="PfA9UrWwTEVDZZUZMj6F-130" target="PfA9UrWwTEVDZZUZMj6F-119" edge="1">
          <mxGeometry relative="1" as="geometry">
            <Array as="points">
              <mxPoint x="708.06" y="431" />
              <mxPoint x="708.06" y="431" />
            </Array>
          </mxGeometry>
        </mxCell>
        <mxCell id="PfA9UrWwTEVDZZUZMj6F-132" value="Pedir datos que mostrar" style="edgeLabel;html=1;align=center;verticalAlign=middle;resizable=0;points=[];" parent="PfA9UrWwTEVDZZUZMj6F-131" vertex="1" connectable="0">
          <mxGeometry x="-0.006" y="2" relative="1" as="geometry">
            <mxPoint x="-5" y="-8" as="offset" />
          </mxGeometry>
        </mxCell>
        <mxCell id="PfA9UrWwTEVDZZUZMj6F-133" value="" style="group" parent="1" vertex="1" connectable="0">
          <mxGeometry x="908" y="431" width="75" as="geometry" />
        </mxCell>
        <mxCell id="PfA9UrWwTEVDZZUZMj6F-134" value="Buscar datos en la base de datos" style="html=1;verticalAlign=bottom;startArrow=none;startFill=0;endArrow=oval;curved=0;rounded=0;endFill=1;targetPerimeterSpacing=2;endSize=14;" parent="PfA9UrWwTEVDZZUZMj6F-133" edge="1">
          <mxGeometry x="0.0667" y="21" width="80" relative="1" as="geometry">
            <mxPoint as="sourcePoint" />
            <mxPoint x="75" as="targetPoint" />
            <mxPoint as="offset" />
            <Array as="points">
              <mxPoint x="35" />
            </Array>
          </mxGeometry>
        </mxCell>
        <mxCell id="PfA9UrWwTEVDZZUZMj6F-135" value="" style="endArrow=open;endFill=1;endSize=12;html=1;rounded=0;" parent="PfA9UrWwTEVDZZUZMj6F-133" source="PfA9UrWwTEVDZZUZMj6F-119" edge="1">
          <mxGeometry width="160" relative="1" as="geometry">
            <mxPoint as="sourcePoint" />
            <mxPoint x="70" as="targetPoint" />
          </mxGeometry>
        </mxCell>
        <mxCell id="PfA9UrWwTEVDZZUZMj6F-136" style="edgeStyle=orthogonalEdgeStyle;rounded=0;orthogonalLoop=1;jettySize=auto;html=1;curved=0;dashed=1;dashPattern=12 12;" parent="1" source="PfA9UrWwTEVDZZUZMj6F-119" target="PfA9UrWwTEVDZZUZMj6F-130" edge="1">
          <mxGeometry relative="1" as="geometry">
            <Array as="points">
              <mxPoint x="734.06" y="481" />
              <mxPoint x="734.06" y="501" />
            </Array>
          </mxGeometry>
        </mxCell>
        <mxCell id="PfA9UrWwTEVDZZUZMj6F-137" value="Envio de datos" style="edgeLabel;html=1;align=center;verticalAlign=middle;resizable=0;points=[];" parent="PfA9UrWwTEVDZZUZMj6F-136" vertex="1" connectable="0">
          <mxGeometry x="0.1905" y="1" relative="1" as="geometry">
            <mxPoint x="9" y="-21" as="offset" />
          </mxGeometry>
        </mxCell>
        <mxCell id="PfA9UrWwTEVDZZUZMj6F-138" style="edgeStyle=orthogonalEdgeStyle;rounded=0;orthogonalLoop=1;jettySize=auto;html=1;curved=0;" parent="1" source="PfA9UrWwTEVDZZUZMj6F-125" target="PfA9UrWwTEVDZZUZMj6F-121" edge="1">
          <mxGeometry relative="1" as="geometry">
            <Array as="points">
              <mxPoint x="303" y="561" />
              <mxPoint x="303" y="561" />
            </Array>
          </mxGeometry>
        </mxCell>
        <mxCell id="PfA9UrWwTEVDZZUZMj6F-139" value="Observar datos dashboard" style="edgeLabel;html=1;align=center;verticalAlign=middle;resizable=0;points=[];" parent="PfA9UrWwTEVDZZUZMj6F-138" vertex="1" connectable="0">
          <mxGeometry x="-0.4423" y="3" relative="1" as="geometry">
            <mxPoint x="34" y="-12" as="offset" />
          </mxGeometry>
        </mxCell>
        <mxCell id="PfA9UrWwTEVDZZUZMj6F-140" style="edgeStyle=orthogonalEdgeStyle;rounded=0;orthogonalLoop=1;jettySize=auto;html=1;curved=0;endArrow=open;endFill=0;" parent="1" source="PfA9UrWwTEVDZZUZMj6F-130" target="PfA9UrWwTEVDZZUZMj6F-121" edge="1">
          <mxGeometry relative="1" as="geometry">
            <Array as="points">
              <mxPoint x="498" y="501" />
              <mxPoint x="498" y="545" />
            </Array>
          </mxGeometry>
        </mxCell>
        <mxCell id="PfA9UrWwTEVDZZUZMj6F-141" value="Actualizar pagina con datos nuevos" style="edgeLabel;html=1;align=center;verticalAlign=middle;resizable=0;points=[];" parent="PfA9UrWwTEVDZZUZMj6F-140" vertex="1" connectable="0">
          <mxGeometry x="0.1006" y="2" relative="1" as="geometry">
            <mxPoint x="40" y="-18" as="offset" />
          </mxGeometry>
        </mxCell>
        <mxCell id="PfA9UrWwTEVDZZUZMj6F-142" style="edgeStyle=orthogonalEdgeStyle;rounded=0;orthogonalLoop=1;jettySize=auto;html=1;curved=0;endArrow=open;endFill=0;dashed=1;dashPattern=12 12;" parent="1" source="PfA9UrWwTEVDZZUZMj6F-121" target="PfA9UrWwTEVDZZUZMj6F-125" edge="1">
          <mxGeometry relative="1" as="geometry">
            <Array as="points">
              <mxPoint x="298" y="591" />
              <mxPoint x="298" y="601" />
            </Array>
          </mxGeometry>
        </mxCell>
        <mxCell id="PfA9UrWwTEVDZZUZMj6F-143" value="Mostrar datos recolectados" style="edgeLabel;html=1;align=center;verticalAlign=middle;resizable=0;points=[];" parent="PfA9UrWwTEVDZZUZMj6F-142" vertex="1" connectable="0">
          <mxGeometry x="-0.2295" y="-2" relative="1" as="geometry">
            <mxPoint x="-21" y="-8" as="offset" />
          </mxGeometry>
        </mxCell>
        <mxCell id="PfA9UrWwTEVDZZUZMj6F-144" value="Loop" style="shape=umlFrame;whiteSpace=wrap;html=1;pointerEvents=0;" parent="1" vertex="1">
          <mxGeometry x="401" y="349" width="647" height="320" as="geometry" />
        </mxCell>
        <mxCell id="PfA9UrWwTEVDZZUZMj6F-145" value="[Hasta cerrar sesion]" style="text;align=center;fontStyle=1;verticalAlign=middle;spacingLeft=3;spacingRight=3;strokeColor=none;rotatable=0;points=[[0,0.5],[1,0.5]];portConstraint=eastwest;html=1;" parent="1" vertex="1">
          <mxGeometry x="859.06" y="349" width="80" height="26" as="geometry" />
        </mxCell>
        <mxCell id="PfA9UrWwTEVDZZUZMj6F-146" style="edgeStyle=orthogonalEdgeStyle;rounded=0;orthogonalLoop=1;jettySize=auto;html=1;curved=0;endArrow=open;endFill=0;" parent="1" source="PfA9UrWwTEVDZZUZMj6F-126" target="PfA9UrWwTEVDZZUZMj6F-122" edge="1">
          <mxGeometry relative="1" as="geometry">
            <Array as="points">
              <mxPoint x="343" y="724" />
              <mxPoint x="343" y="724" />
            </Array>
          </mxGeometry>
        </mxCell>
        <mxCell id="PfA9UrWwTEVDZZUZMj6F-147" value="Cerrar sesion" style="edgeLabel;html=1;align=center;verticalAlign=middle;resizable=0;points=[];" parent="PfA9UrWwTEVDZZUZMj6F-146" vertex="1" connectable="0">
          <mxGeometry x="-0.0481" y="2" relative="1" as="geometry">
            <mxPoint x="-11" y="-13" as="offset" />
          </mxGeometry>
        </mxCell>
        <mxCell id="PfA9UrWwTEVDZZUZMj6F-148" style="edgeStyle=orthogonalEdgeStyle;rounded=0;orthogonalLoop=1;jettySize=auto;html=1;curved=0;endArrow=open;endFill=0;" parent="1" source="PfA9UrWwTEVDZZUZMj6F-122" target="PfA9UrWwTEVDZZUZMj6F-151" edge="1">
          <mxGeometry relative="1" as="geometry">
            <Array as="points">
              <mxPoint x="511" y="721" />
              <mxPoint x="511" y="721" />
            </Array>
          </mxGeometry>
        </mxCell>
        <mxCell id="PfA9UrWwTEVDZZUZMj6F-149" value="&lt;font style=&quot;font-size: 10px;&quot;&gt;Peticion de volver al login&lt;/font&gt;" style="edgeLabel;html=1;align=center;verticalAlign=middle;resizable=0;points=[];" parent="PfA9UrWwTEVDZZUZMj6F-148" vertex="1" connectable="0">
          <mxGeometry x="-0.3534" y="-1" relative="1" as="geometry">
            <mxPoint x="22" y="-24" as="offset" />
          </mxGeometry>
        </mxCell>
        <mxCell id="PfA9UrWwTEVDZZUZMj6F-150" value="BaseRouter" style="shape=umlLifeline;perimeter=lifelinePerimeter;whiteSpace=wrap;html=1;container=1;collapsible=0;recursiveResize=0;outlineConnect=0;rounded=0;shadow=0;comic=0;labelBackgroundColor=none;strokeWidth=1;fontFamily=Verdana;fontSize=12;align=center;" parent="1" vertex="1">
          <mxGeometry x="491" y="85" width="100" height="705" as="geometry" />
        </mxCell>
        <mxCell id="PfA9UrWwTEVDZZUZMj6F-151" value="" style="html=1;points=[[0,0,0,0,5],[0,1,0,0,-5],[1,0,0,0,5],[1,1,0,0,-5]];perimeter=orthogonalPerimeter;outlineConnect=0;targetShapes=umlLifeline;portConstraint=eastwest;newEdgeStyle={&quot;curved&quot;:0,&quot;rounded&quot;:0};" parent="PfA9UrWwTEVDZZUZMj6F-150" vertex="1">
          <mxGeometry x="44.99999999999994" y="624" width="10" height="35" as="geometry" />
        </mxCell>
        <mxCell id="PfA9UrWwTEVDZZUZMj6F-152" value="¿Existen datos registrados?" style="shape=umlFrame;whiteSpace=wrap;html=1;pointerEvents=0;recursiveResize=0;container=1;collapsible=0;width=230;height=28;" parent="1" vertex="1">
          <mxGeometry x="140" y="170" width="910" height="630" as="geometry" />
        </mxCell>
        <mxCell id="PfA9UrWwTEVDZZUZMj6F-153" value="No" style="text;html=1;" parent="PfA9UrWwTEVDZZUZMj6F-152" vertex="1">
          <mxGeometry width="100" height="20" relative="1" as="geometry">
            <mxPoint x="23" y="28" as="offset" />
          </mxGeometry>
        </mxCell>
        <mxCell id="PfA9UrWwTEVDZZUZMj6F-154" value="Si" style="line;strokeWidth=1;dashed=1;labelPosition=center;verticalLabelPosition=bottom;align=left;verticalAlign=top;spacingLeft=20;spacingTop=15;html=1;whiteSpace=wrap;" parent="PfA9UrWwTEVDZZUZMj6F-152" vertex="1">
          <mxGeometry y="120" width="900" height="10" as="geometry" />
        </mxCell>
        <mxCell id="PfA9UrWwTEVDZZUZMj6F-155" value="" style="html=1;verticalAlign=bottom;startArrow=circle;startFill=1;endArrow=open;startSize=6;endSize=8;curved=0;rounded=0;dashed=1;dashPattern=12 12;" parent="PfA9UrWwTEVDZZUZMj6F-152" edge="1" target="PfA9UrWwTEVDZZUZMj6F-119">
          <mxGeometry x="-1" y="-10" width="80" relative="1" as="geometry">
            <mxPoint x="843" y="301" as="sourcePoint" />
            <mxPoint x="758" y="301" as="targetPoint" />
            <mxPoint as="offset" />
          </mxGeometry>
        </mxCell>
        <mxCell id="PfA9UrWwTEVDZZUZMj6F-156" value="Enviar datos de la base de datos" style="edgeLabel;html=1;align=center;verticalAlign=middle;resizable=0;points=[];" parent="PfA9UrWwTEVDZZUZMj6F-155" vertex="1" connectable="0">
          <mxGeometry x="-0.5176" y="-1" relative="1" as="geometry">
            <mxPoint x="11" y="-16" as="offset" />
          </mxGeometry>
        </mxCell>
        <mxCell id="PfA9UrWwTEVDZZUZMj6F-157" value="" style="html=1;points=[[0,0,0,0,5],[0,1,0,0,-5],[1,0,0,0,5],[1,1,0,0,-5]];perimeter=orthogonalPerimeter;outlineConnect=0;targetShapes=umlLifeline;portConstraint=eastwest;newEdgeStyle={&quot;curved&quot;:0,&quot;rounded&quot;:0};" parent="PfA9UrWwTEVDZZUZMj6F-152" vertex="1">
          <mxGeometry x="724.5" y="20" width="10" height="65" as="geometry" />
        </mxCell>
        <mxCell id="PfA9UrWwTEVDZZUZMj6F-158" style="edgeStyle=orthogonalEdgeStyle;rounded=0;orthogonalLoop=1;jettySize=auto;html=1;curved=0;" parent="PfA9UrWwTEVDZZUZMj6F-152" source="PfA9UrWwTEVDZZUZMj6F-160" target="PfA9UrWwTEVDZZUZMj6F-172" edge="1">
          <mxGeometry relative="1" as="geometry">
            <Array as="points">
              <mxPoint x="407" y="68" />
              <mxPoint x="407" y="80" />
            </Array>
          </mxGeometry>
        </mxCell>
        <mxCell id="PfA9UrWwTEVDZZUZMj6F-159" value="Mensaje Datos no existentes" style="edgeLabel;html=1;align=center;verticalAlign=middle;resizable=0;points=[];" parent="PfA9UrWwTEVDZZUZMj6F-158" vertex="1" connectable="0">
          <mxGeometry x="0.2627" y="2" relative="1" as="geometry">
            <mxPoint x="17" y="-29" as="offset" />
          </mxGeometry>
        </mxCell>
        <mxCell id="PfA9UrWwTEVDZZUZMj6F-160" value="" style="html=1;points=[[0,0,0,0,5],[0,1,0,0,-5],[1,0,0,0,5],[1,1,0,0,-5]];perimeter=orthogonalPerimeter;outlineConnect=0;targetShapes=umlLifeline;portConstraint=eastwest;newEdgeStyle={&quot;curved&quot;:0,&quot;rounded&quot;:0};" parent="PfA9UrWwTEVDZZUZMj6F-152" vertex="1">
          <mxGeometry x="531" y="30" width="10" height="60" as="geometry" />
        </mxCell>
        <mxCell id="PfA9UrWwTEVDZZUZMj6F-161" style="edgeStyle=orthogonalEdgeStyle;rounded=0;orthogonalLoop=1;jettySize=auto;html=1;curved=0;" parent="PfA9UrWwTEVDZZUZMj6F-152" source="PfA9UrWwTEVDZZUZMj6F-160" target="PfA9UrWwTEVDZZUZMj6F-157" edge="1">
          <mxGeometry relative="1" as="geometry">
            <Array as="points">
              <mxPoint x="567.5" y="30" />
              <mxPoint x="567.5" y="30" />
            </Array>
          </mxGeometry>
        </mxCell>
        <mxCell id="PfA9UrWwTEVDZZUZMj6F-162" value="Pedir datos que mostrar" style="edgeLabel;html=1;align=center;verticalAlign=middle;resizable=0;points=[];" parent="PfA9UrWwTEVDZZUZMj6F-161" vertex="1" connectable="0">
          <mxGeometry x="-0.006" y="2" relative="1" as="geometry">
            <mxPoint x="-5" y="-8" as="offset" />
          </mxGeometry>
        </mxCell>
        <mxCell id="PfA9UrWwTEVDZZUZMj6F-163" value="" style="group" parent="PfA9UrWwTEVDZZUZMj6F-152" vertex="1" connectable="0">
          <mxGeometry x="768" y="30" width="75" as="geometry" />
        </mxCell>
        <mxCell id="PfA9UrWwTEVDZZUZMj6F-164" value="Buscar datos en la base de datos" style="html=1;verticalAlign=bottom;startArrow=none;startFill=0;endArrow=oval;curved=0;rounded=0;endFill=1;targetPerimeterSpacing=2;endSize=14;" parent="PfA9UrWwTEVDZZUZMj6F-163" edge="1">
          <mxGeometry x="-0.0667" y="10" width="80" relative="1" as="geometry">
            <mxPoint as="sourcePoint" />
            <mxPoint x="75" as="targetPoint" />
            <mxPoint x="1" as="offset" />
            <Array as="points">
              <mxPoint x="35" />
            </Array>
          </mxGeometry>
        </mxCell>
        <mxCell id="PfA9UrWwTEVDZZUZMj6F-165" value="" style="endArrow=open;endFill=1;endSize=12;html=1;rounded=0;" parent="PfA9UrWwTEVDZZUZMj6F-163" source="PfA9UrWwTEVDZZUZMj6F-157" edge="1">
          <mxGeometry width="160" relative="1" as="geometry">
            <mxPoint as="sourcePoint" />
            <mxPoint x="70" as="targetPoint" />
          </mxGeometry>
        </mxCell>
        <mxCell id="PfA9UrWwTEVDZZUZMj6F-166" style="edgeStyle=orthogonalEdgeStyle;rounded=0;orthogonalLoop=1;jettySize=auto;html=1;curved=0;dashed=1;dashPattern=12 12;" parent="PfA9UrWwTEVDZZUZMj6F-152" source="PfA9UrWwTEVDZZUZMj6F-157" target="PfA9UrWwTEVDZZUZMj6F-160" edge="1">
          <mxGeometry relative="1" as="geometry">
            <Array as="points">
              <mxPoint x="638" y="70" />
              <mxPoint x="638" y="70" />
            </Array>
          </mxGeometry>
        </mxCell>
        <mxCell id="PfA9UrWwTEVDZZUZMj6F-167" value="Sin datos que mostrar" style="edgeLabel;html=1;align=center;verticalAlign=middle;resizable=0;points=[];" parent="PfA9UrWwTEVDZZUZMj6F-166" vertex="1" connectable="0">
          <mxGeometry x="0.1905" y="1" relative="1" as="geometry">
            <mxPoint x="9" y="-21" as="offset" />
          </mxGeometry>
        </mxCell>
        <mxCell id="PfA9UrWwTEVDZZUZMj6F-168" value="" style="html=1;verticalAlign=bottom;startArrow=circle;startFill=1;endArrow=open;startSize=6;endSize=8;curved=0;rounded=0;dashed=1;dashPattern=12 12;" parent="PfA9UrWwTEVDZZUZMj6F-152" edge="1" target="PfA9UrWwTEVDZZUZMj6F-157">
          <mxGeometry x="-1" y="-10" width="80" relative="1" as="geometry">
            <mxPoint x="843.56" y="70" as="sourcePoint" />
            <mxPoint x="758" y="70" as="targetPoint" />
            <mxPoint as="offset" />
          </mxGeometry>
        </mxCell>
        <mxCell id="PfA9UrWwTEVDZZUZMj6F-169" value="No se encontraron datos en base de datos" style="edgeLabel;html=1;align=center;verticalAlign=middle;resizable=0;points=[];" parent="PfA9UrWwTEVDZZUZMj6F-168" vertex="1" connectable="0">
          <mxGeometry x="-0.5176" y="-1" relative="1" as="geometry">
            <mxPoint x="21" y="-16" as="offset" />
          </mxGeometry>
        </mxCell>
        <mxCell id="PfA9UrWwTEVDZZUZMj6F-170" style="edgeStyle=orthogonalEdgeStyle;rounded=0;orthogonalLoop=1;jettySize=auto;html=1;curved=0;" parent="PfA9UrWwTEVDZZUZMj6F-152" source="PfA9UrWwTEVDZZUZMj6F-172" target="PfA9UrWwTEVDZZUZMj6F-173" edge="1">
          <mxGeometry relative="1" as="geometry">
            <Array as="points">
              <mxPoint x="127" y="90" />
              <mxPoint x="127" y="90" />
            </Array>
          </mxGeometry>
        </mxCell>
        <mxCell id="PfA9UrWwTEVDZZUZMj6F-171" value="Notificar que no se han registrado datos" style="edgeLabel;html=1;align=center;verticalAlign=middle;resizable=0;points=[];" parent="PfA9UrWwTEVDZZUZMj6F-170" vertex="1" connectable="0">
          <mxGeometry x="0.229" y="-1" relative="1" as="geometry">
            <mxPoint x="23" y="-24" as="offset" />
          </mxGeometry>
        </mxCell>
        <mxCell id="PfA9UrWwTEVDZZUZMj6F-172" value="" style="html=1;points=[[0,0,0,0,5],[0,1,0,0,-5],[1,0,0,0,5],[1,1,0,0,-5]];perimeter=orthogonalPerimeter;outlineConnect=0;targetShapes=umlLifeline;portConstraint=eastwest;newEdgeStyle={&quot;curved&quot;:0,&quot;rounded&quot;:0};" parent="PfA9UrWwTEVDZZUZMj6F-152" vertex="1">
          <mxGeometry x="273" y="70" width="10" height="40" as="geometry" />
        </mxCell>
        <mxCell id="PfA9UrWwTEVDZZUZMj6F-173" value="" style="html=1;points=[[0,0,0,0,5],[0,1,0,0,-5],[1,0,0,0,5],[1,1,0,0,-5]];perimeter=orthogonalPerimeter;outlineConnect=0;targetShapes=umlLifeline;portConstraint=eastwest;newEdgeStyle={&quot;curved&quot;:0,&quot;rounded&quot;:0};" parent="PfA9UrWwTEVDZZUZMj6F-152" vertex="1">
          <mxGeometry x="62" y="70" width="10" height="30" as="geometry" />
        </mxCell>
        <mxCell id="PfA9UrWwTEVDZZUZMj6F-174" value="Los datos constantemente se actualizan" style="shape=note;whiteSpace=wrap;html=1;backgroundOutline=1;darkOpacity=0.05;size=20;" parent="PfA9UrWwTEVDZZUZMj6F-152" vertex="1">
          <mxGeometry x="421" y="190" width="88" height="92" as="geometry" />
        </mxCell>
      </root>
    </mxGraphModel>
  </diagram>
</mxfile>
